<svg id="Capa_1" enable-background="new 0 0 512 512" height="512" viewBox="0 0 512 512" width="512" xmlns="http://www.w3.org/2000/svg"><g><g><path d="m357.258 479.274h-306.751c-9.941 0-18-8.059-18-18v-435.774c0-9.941 8.059-18 18-18h306.751c9.941 0 18 8.059 18 18v435.774c0 9.941-8.059 18-18 18z" fill="#c8effe"/><path d="m357.258 7.5h-30.467c9.941 0 18 8.059 18 18v435.773c0 9.941-8.059 18-18 18h30.467c9.941 0 18-8.059 18-18v-435.773c0-9.941-8.059-18-18-18z" fill="#b3dafe"/><path d="m369.248 319.642v-17.155c0-4.386-3.556-7.941-7.942-7.941h-28.789c-4.386 0-7.942 3.556-7.942 7.941v17.155c-6.278 1.768-12.25 4.267-17.822 7.393l-12.137-12.137c-3.102-3.102-8.13-3.102-11.231 0l-20.357 20.356c-3.102 3.102-3.102 8.13 0 11.231l12.137 12.137c-3.126 5.573-5.625 11.544-7.393 17.822h-17.154c-4.386 0-7.942 3.556-7.942 7.942v28.789c0 4.386 3.556 7.942 7.942 7.942h17.154c1.769 6.279 4.267 12.25 7.393 17.822l-12.137 12.138c-3.102 3.101-3.102 8.129 0 11.231l16.966 16.966h18.013l8.747-8.747c5.573 3.126 11.544 5.625 17.822 7.393v1.354h32.683c9.941 0 18-8.059 18-18v-139.675c-1.971-.725-3.973-1.384-6.011-1.957z" fill="#b3dafe"/><path d="m62.974 168.639v-118.625c0-4.971 4.029-9 9-9h122.909c4.971 0 9 4.029 9 9v118.624c0 4.971-4.029 9-9 9h-122.909c-4.971.001-9-4.029-9-8.999z" fill="#f47c7c"/><path d="m344.791 211.944v73.601c0 4.971-4.029 9-9 9h-101.246c-4.971 0-9-4.029-9-9v-73.601c0-4.971 4.029-9 9-9h101.246c4.971 0 9 4.03 9 9z" fill="#5f99d7"/><path d="m471.551 376.444h-17.154c-1.768-6.278-4.267-12.25-7.393-17.822l12.137-12.137c3.101-3.102 3.101-8.13 0-11.232l-20.357-20.357c-3.101-3.102-8.13-3.102-11.231 0l-12.137 12.137c-5.573-3.126-11.544-5.624-17.822-7.393v-17.154c0-4.386-3.556-7.942-7.942-7.942h-28.789c-4.386 0-7.942 3.556-7.942 7.942v17.154c-6.278 1.768-12.25 4.267-17.822 7.393l-12.137-12.137c-3.101-3.102-8.13-3.102-11.231 0l-20.357 20.357c-3.101 3.102-3.101 8.13 0 11.232l12.137 12.137c-3.126 5.572-5.624 11.544-7.393 17.822h-17.154c-4.386 0-7.942 3.556-7.942 7.942v28.789c0 4.386 3.556 7.942 7.942 7.942h17.154c1.768 6.279 4.267 12.25 7.393 17.822l-12.137 12.138c-3.101 3.101-3.101 8.13 0 11.231l20.357 20.357c3.101 3.101 8.13 3.101 11.231 0l12.137-12.138c5.573 3.126 11.544 5.625 17.822 7.393v17.154c0 4.386 3.556 7.942 7.942 7.942h28.789c4.386 0 7.942-3.555 7.942-7.942v-17.154c6.278-1.768 12.25-4.267 17.822-7.393l12.137 12.138c3.101 3.101 8.13 3.101 11.231 0l20.357-20.357c3.101-3.101 3.101-8.13 0-11.231l-12.137-12.138c3.126-5.572 5.624-11.544 7.393-17.822h17.154c4.386 0 7.942-3.555 7.942-7.942v-28.789c0-4.386-3.556-7.942-7.942-7.942z" fill="#537983"/><circle cx="375.258" cy="398.781" fill="#c8effe" r="35.429"/><g><path d="m471.551 376.444h-17.154c-1.769-6.278-4.267-12.25-7.393-17.822l12.137-12.137c3.102-3.102 3.102-8.13 0-11.231l-20.357-20.356c-3.101-3.102-8.13-3.102-11.231 0l-8.558 8.558 11.799 11.799c3.101 3.102 3.101 8.13 0 11.231l-12.137 12.137c3.126 5.573 5.625 11.544 7.393 17.822h17.154c4.386 0 7.942 3.556 7.942 7.942v28.789c0 4.386-3.556 7.942-7.942 7.942h-17.154c-1.769 6.279-4.267 12.25-7.393 17.822l12.137 12.138c3.101 3.101 3.101 8.129 0 11.231l-11.799 11.799 8.558 8.558c3.101 3.101 8.13 3.101 11.231 0l20.357-20.357c3.102-3.102 3.102-8.13 0-11.231l-12.137-12.138c3.126-5.572 5.624-11.543 7.393-17.822h17.154c4.386 0 7.942-3.556 7.942-7.942v-28.789c0-4.387-3.555-7.943-7.942-7.943z" fill="#3e5959"/></g><path d="m375.258 363.352c-3.965 0-7.776.665-11.339 1.872 13.99 4.74 24.09 17.987 24.09 33.557s-10.101 28.816-24.09 33.557c3.563 1.207 7.373 1.872 11.339 1.872 19.535 0 35.428-15.893 35.428-35.428 0-19.537-15.893-35.43-35.428-35.43z" fill="#b3dafe"/></g><g><path d="m375.615 356.918c-23.729 0-43.035 19.305-43.035 43.035s19.306 43.035 43.035 43.035 43.034-19.305 43.034-43.035-19.304-43.035-43.034-43.035zm0 71.069c-15.459 0-28.035-12.576-28.035-28.035s12.576-28.035 28.035-28.035c15.458 0 28.034 12.576 28.034 28.035s-12.576 28.035-28.034 28.035z"/><path d="m472.197 370.049h-11.719c-1.075-3.046-2.315-6.037-3.716-8.955l8.29-8.29c2.922-2.921 4.531-6.805 4.531-10.937s-1.609-8.017-4.53-10.936l-20.418-20.417c-6.043-6.046-15.826-6.047-21.871-.001l-8.291 8.291c-2.919-1.4-5.91-2.641-8.955-3.715v-11.719c0-8.528-6.938-15.465-15.466-15.465h-6.938v-262.351c.001-14.091-11.462-25.554-25.552-25.554h-243.037c-4.143 0-7.5 3.358-7.5 7.5s3.357 7.5 7.5 7.5h243.036c5.819 0 10.554 4.734 10.554 10.554v262.352c-6.968 0-11.256-.632-16.24 3.14.437-1.482.682-3.046.682-4.667v-73.821c0-9.113-7.414-16.527-16.526-16.527h-101.551c-9.112 0-16.526 7.414-16.526 16.527v73.821c0 9.113 7.414 16.527 16.526 16.527h101.55c3.866 0 7.418-1.344 10.236-3.576-.351 1.291-.554 2.641-.554 4.042v11.719c-3.046 1.074-6.036 2.315-8.955 3.715l-8.291-8.292c-5.913-5.911-15.712-6.166-21.872.001-22.693 22.694-20.742 20.64-21.79 22.013-4.613 6.054-4.189 14.714 1.373 20.276l8.291 8.291c-1.4 2.919-2.642 5.909-3.716 8.955h-11.719c-8.528 0-15.466 6.938-15.466 15.466v28.875c0 6.929 4.58 12.808 10.872 14.769 2.889.901 3.781.697 16.313.697 1.074 3.046 2.315 6.037 3.716 8.956-7.701 7.701-13.632 11.745-12.746 20.763.348 3.552 1.9 6.846 4.455 9.399l4.213 4.213h-240.498c-5.819 0-10.554-4.734-10.554-10.554v-437.08c0-5.82 4.734-10.554 10.554-10.554h29.634c4.143 0 7.5-3.358 7.5-7.5s-3.358-7.5-7.501-7.5h-29.633c-14.091 0-25.554 11.463-25.554 25.554v437.079c0 14.09 11.463 25.554 25.554 25.554h255.498l1.206 1.206c6.055 6.052 15.843 6.035 21.872-.001l1.205-1.205h16.041v8.348c0 8.528 6.938 15.465 15.466 15.465h28.875c8.528 0 15.466-6.938 15.466-15.465v-11.719c3.046-1.074 6.036-2.315 8.955-3.715l8.291 8.292c2.922 2.92 6.806 4.529 10.936 4.529 5.472 0 8.305-4.104 8.026-8.048-.292-4.132-3.909-7.244-8.026-6.952-.193 0-.297-.103-.329-.136l-12.174-12.174c-2.377-2.376-6.044-2.881-8.973-1.238-5.138 2.882-10.602 5.149-16.239 6.737-3.233.911-5.467 3.86-5.467 7.219v17.206c0 .257-.209.465-.466.465h-28.875c-.257 0-.466-.208-.466-.465 0-5.554 0-10.764 0-17.206 0-3.359-2.233-6.308-5.466-7.219-5.639-1.588-11.103-3.855-16.241-6.737-2.928-1.644-6.596-1.14-8.973 1.238-6.642 6.642-11.654 11.656-12.176 12.178-.036.036-.133.133-.325.133-.194 0-.298-.103-.33-.136-2.201-2.201.188.187-20.417-20.418-.033-.033-.129-.135-.135-.316 0-.005-.003-.007-.003-.013 0-.192.099-.29.138-.329l12.173-12.174c2.375-2.376 2.881-6.042 1.237-8.972-2.904-5.179-5.194-10.765-6.737-16.241-.912-3.235-3.863-5.466-7.219-5.466h-17.205c-.257 0-.466-.209-.466-.465v-28.875c0-.257.209-.466.466-.466h17.205c3.358 0 6.308-2.233 7.219-5.466 1.589-5.638 3.855-11.103 6.737-16.241 1.644-2.931 1.138-6.596-1.237-8.972l-12.173-12.173c-.034-.033-.107-.127-.125-.279-.002-.02-.012-.029-.012-.051 0-.006.003-.009.004-.015.006-.179.101-.281.134-.314l20.416-20.417c.034-.034.137-.137.33-.138.193 0 .296.103.33.137l12.173 12.173c1.486 1.485 3.474 2.239 5.472 2.195 3.362-.075 3.724-1.76 12.564-5.26 2.353-.931 4.747-1.749 7.176-2.433 3.233-.911 5.467-3.86 5.467-7.219v-17.206c0-.256.209-.465.466-.465h28.875c.257 0 .466.208.466.465v17.206c0 3.359 2.233 6.308 5.467 7.219 5.636 1.587 11.1 3.854 16.239 6.737 2.928 1.641 6.595 1.139 8.972-1.238l12.175-12.173c.033-.034.137-.137.329-.137.191 0 .291.099.328.137l20.42 20.419c.037.037.136.135.136.328 0 .192-.099.291-.137.329l-12.174 12.173c-2.377 2.376-2.883 6.042-1.238 8.973 2.883 5.138 5.149 10.602 6.737 16.239.91 3.233 3.859 5.467 7.219 5.467h17.206c.256 0 .465.209.465.466v28.875c0 .256-.209.465-.465.465h-17.206c-3.359 0-6.309 2.233-7.219 5.467-1.588 5.638-3.854 11.102-6.737 16.24-1.644 2.93-1.139 6.597 1.237 8.973l12.177 12.176c.037.037.135.135.135.327 0 .178-.087.274-.115.306-2.77 3.08-2.518 7.822.563 10.592 3.08 2.77 7.822 2.517 10.592-.563 2.554-2.841 3.961-6.511 3.961-10.335 0-4.133-1.61-8.018-4.53-10.936l-8.291-8.291c1.4-2.919 2.641-5.909 3.716-8.956h11.719c8.527 0 15.465-6.938 15.465-15.465v-28.875c-.006-8.531-6.943-15.469-15.471-15.469zm-134.64-83.671c0 .842-.685 1.527-1.526 1.527h-101.551c-.842 0-1.526-.685-1.526-1.527v-73.821c0-.842.685-1.527 1.526-1.527h101.55c.842 0 1.526.685 1.526 1.527v73.821z"/><path d="m194.699 33.615h-123.276c-9.113 0-16.527 7.414-16.527 16.527v118.98c0 9.113 7.414 16.527 16.527 16.527h123.276c9.113 0 16.527-7.414 16.527-16.527v-118.98c.001-9.113-7.413-16.527-16.527-16.527zm1.528 135.507c0 .842-.686 1.527-1.527 1.527h-123.277c-.842 0-1.527-.685-1.527-1.527v-118.98c0-.842.686-1.527 1.527-1.527h123.276c.842 0 1.527.685 1.527 1.527v118.98z"/><path d="m232.976 81.217h104.559c4.154 0 7.522-3.368 7.522-7.522s-3.368-7.522-7.522-7.522h-104.559c-4.154 0-7.522 3.368-7.522 7.522s3.368 7.522 7.522 7.522z"/><path d="m232.976 116.407h104.559c4.154 0 7.522-3.368 7.522-7.522s-3.368-7.522-7.522-7.522h-104.559c-4.154 0-7.522 3.368-7.522 7.522s3.368 7.522 7.522 7.522z"/><path d="m232.976 151.597h104.559c4.154 0 7.522-3.368 7.522-7.522s-3.368-7.522-7.522-7.522h-104.559c-4.154 0-7.522 3.368-7.522 7.522s3.368 7.522 7.522 7.522z"/><path d="m224.853 332.944h-154.934c-4.155 0-7.522 3.368-7.522 7.522s3.368 7.522 7.522 7.522h154.934c4.155 0 7.522-3.368 7.522-7.522s-3.367-7.522-7.522-7.522z"/><path d="m69.918 274.585h104.558c4.155 0 7.522-3.368 7.522-7.522s-3.368-7.522-7.522-7.522h-104.558c-4.155 0-7.522 3.368-7.522 7.522s3.367 7.522 7.522 7.522z"/><path d="m69.918 239.395h104.558c4.155 0 7.522-3.368 7.522-7.522s-3.368-7.522-7.522-7.522h-104.558c-4.155 0-7.522 3.368-7.522 7.522s3.367 7.522 7.522 7.522z"/><path d="m224.853 365.427h-154.934c-4.155 0-7.522 3.368-7.522 7.522s3.368 7.522 7.522 7.522h154.934c4.155 0 7.522-3.368 7.522-7.522s-3.367-7.522-7.522-7.522z"/><path d="m224.853 397.909h-154.934c-4.155 0-7.522 3.368-7.522 7.522s3.368 7.522 7.522 7.522h154.934c4.155 0 7.522-3.368 7.522-7.522s-3.367-7.522-7.522-7.522z"/><path d="m69.919 447.072h154.934c4.155 0 7.522-3.368 7.522-7.522 0-4.155-3.368-7.522-7.522-7.522h-154.934c-4.155 0-7.522 3.368-7.522 7.522-.001 4.154 3.367 7.522 7.522 7.522z"/></g></g></svg>